<mxfile host="app.diagrams.net" agent="Mozilla/5.0 (Windows NT 10.0; Win64; x64) AppleWebKit/537.36 (KHTML, like Gecko) Chrome/130.0.0.0 Safari/537.36 OPR/115.0.0.0" version="26.0.4">
  <diagram name="Page-1" id="x_PjVc11yObYdUK3SrKM">
    <mxGraphModel dx="1992" dy="1046" grid="1" gridSize="10" guides="1" tooltips="1" connect="1" arrows="1" fold="1" page="1" pageScale="1" pageWidth="850" pageHeight="1100" math="0" shadow="0">
      <root>
        <mxCell id="0" />
        <mxCell id="1" parent="0" />
        <mxCell id="LSUyIRGO3ml7V9dgrDUq-1" value="Actor" style="shape=umlActor;verticalLabelPosition=bottom;verticalAlign=top;html=1;outlineConnect=0;" parent="1" vertex="1">
          <mxGeometry x="90" y="400" width="30" height="60" as="geometry" />
        </mxCell>
        <mxCell id="LSUyIRGO3ml7V9dgrDUq-2" value="" style="swimlane;startSize=0;" parent="1" vertex="1">
          <mxGeometry x="200" y="40" width="440" height="940" as="geometry" />
        </mxCell>
        <mxCell id="IDCshQqnjku1q6qR8PRN-1" value="انشاء حساب" style="ellipse;whiteSpace=wrap;html=1;" parent="LSUyIRGO3ml7V9dgrDUq-2" vertex="1">
          <mxGeometry x="160" y="20" width="120" height="80" as="geometry" />
        </mxCell>
        <mxCell id="IDCshQqnjku1q6qR8PRN-9" value="ادارة الحساب" style="ellipse;whiteSpace=wrap;html=1;" parent="LSUyIRGO3ml7V9dgrDUq-2" vertex="1">
          <mxGeometry x="160" y="420" width="120" height="80" as="geometry" />
        </mxCell>
        <mxCell id="IDCshQqnjku1q6qR8PRN-8" value="تسجيل خروج" style="ellipse;whiteSpace=wrap;html=1;" parent="LSUyIRGO3ml7V9dgrDUq-2" vertex="1">
          <mxGeometry x="160" y="220" width="120" height="80" as="geometry" />
        </mxCell>
        <mxCell id="IDCshQqnjku1q6qR8PRN-7" value="طلب استرجاع&amp;nbsp;&lt;div&gt;كلمة المرور&lt;/div&gt;" style="ellipse;whiteSpace=wrap;html=1;" parent="LSUyIRGO3ml7V9dgrDUq-2" vertex="1">
          <mxGeometry x="160" y="320" width="120" height="80" as="geometry" />
        </mxCell>
        <mxCell id="IDCshQqnjku1q6qR8PRN-6" value="ادارة بيانات&lt;div&gt;المرضى&lt;/div&gt;" style="ellipse;whiteSpace=wrap;html=1;" parent="LSUyIRGO3ml7V9dgrDUq-2" vertex="1">
          <mxGeometry x="160" y="520" width="120" height="80" as="geometry" />
        </mxCell>
        <mxCell id="IDCshQqnjku1q6qR8PRN-5" value="ادارة صورة&amp;nbsp;&lt;div&gt;الاشعة&lt;/div&gt;" style="ellipse;whiteSpace=wrap;html=1;" parent="LSUyIRGO3ml7V9dgrDUq-2" vertex="1">
          <mxGeometry x="160" y="720" width="120" height="80" as="geometry" />
        </mxCell>
        <mxCell id="IDCshQqnjku1q6qR8PRN-4" value="تعديل اللغة" style="ellipse;whiteSpace=wrap;html=1;" parent="LSUyIRGO3ml7V9dgrDUq-2" vertex="1">
          <mxGeometry x="160" y="820" width="120" height="80" as="geometry" />
        </mxCell>
        <mxCell id="IDCshQqnjku1q6qR8PRN-3" value="ادارة الملفات" style="ellipse;whiteSpace=wrap;html=1;" parent="LSUyIRGO3ml7V9dgrDUq-2" vertex="1">
          <mxGeometry x="160" y="620" width="120" height="80" as="geometry" />
        </mxCell>
        <mxCell id="IDCshQqnjku1q6qR8PRN-2" value="تسجيل دخول" style="ellipse;whiteSpace=wrap;html=1;" parent="LSUyIRGO3ml7V9dgrDUq-2" vertex="1">
          <mxGeometry x="160" y="120" width="120" height="80" as="geometry" />
        </mxCell>
        <mxCell id="4tIVyKQn4jrEs9D6Ye5S-8" value="" style="endArrow=none;html=1;rounded=0;exitX=0;exitY=0.5;exitDx=0;exitDy=0;" edge="1" parent="LSUyIRGO3ml7V9dgrDUq-2" source="IDCshQqnjku1q6qR8PRN-3">
          <mxGeometry width="50" height="50" relative="1" as="geometry">
            <mxPoint x="225" y="610" as="sourcePoint" />
            <mxPoint x="-80" y="400" as="targetPoint" />
          </mxGeometry>
        </mxCell>
        <mxCell id="4tIVyKQn4jrEs9D6Ye5S-9" value="" style="endArrow=none;html=1;rounded=0;entryX=0;entryY=0.5;entryDx=0;entryDy=0;" edge="1" parent="LSUyIRGO3ml7V9dgrDUq-2" target="IDCshQqnjku1q6qR8PRN-5">
          <mxGeometry width="50" height="50" relative="1" as="geometry">
            <mxPoint x="-80" y="400" as="sourcePoint" />
            <mxPoint x="-30" y="460" as="targetPoint" />
          </mxGeometry>
        </mxCell>
        <mxCell id="4tIVyKQn4jrEs9D6Ye5S-1" value="جسر التشخيص" style="text;html=1;align=center;verticalAlign=middle;whiteSpace=wrap;rounded=0;" vertex="1" parent="1">
          <mxGeometry x="380" y="10" width="80" height="30" as="geometry" />
        </mxCell>
        <mxCell id="4tIVyKQn4jrEs9D6Ye5S-2" value="" style="endArrow=none;html=1;rounded=0;entryX=0;entryY=0.5;entryDx=0;entryDy=0;" edge="1" parent="1" target="IDCshQqnjku1q6qR8PRN-1">
          <mxGeometry width="50" height="50" relative="1" as="geometry">
            <mxPoint x="120" y="440" as="sourcePoint" />
            <mxPoint x="170" y="390" as="targetPoint" />
          </mxGeometry>
        </mxCell>
        <mxCell id="4tIVyKQn4jrEs9D6Ye5S-3" value="" style="endArrow=none;html=1;rounded=0;entryX=0;entryY=0.5;entryDx=0;entryDy=0;" edge="1" parent="1" target="IDCshQqnjku1q6qR8PRN-2">
          <mxGeometry width="50" height="50" relative="1" as="geometry">
            <mxPoint x="120" y="440" as="sourcePoint" />
            <mxPoint x="170" y="390" as="targetPoint" />
          </mxGeometry>
        </mxCell>
        <mxCell id="4tIVyKQn4jrEs9D6Ye5S-4" value="" style="endArrow=none;html=1;rounded=0;entryX=0;entryY=0.5;entryDx=0;entryDy=0;" edge="1" parent="1" target="IDCshQqnjku1q6qR8PRN-8">
          <mxGeometry width="50" height="50" relative="1" as="geometry">
            <mxPoint x="120" y="440" as="sourcePoint" />
            <mxPoint x="180" y="400" as="targetPoint" />
          </mxGeometry>
        </mxCell>
        <mxCell id="4tIVyKQn4jrEs9D6Ye5S-5" value="" style="endArrow=none;html=1;rounded=0;entryX=0;entryY=0.5;entryDx=0;entryDy=0;" edge="1" parent="1" target="IDCshQqnjku1q6qR8PRN-7">
          <mxGeometry width="50" height="50" relative="1" as="geometry">
            <mxPoint x="120" y="438.66" as="sourcePoint" />
            <mxPoint x="193.5200000000001" y="409.99999999999994" as="targetPoint" />
          </mxGeometry>
        </mxCell>
        <mxCell id="4tIVyKQn4jrEs9D6Ye5S-6" value="" style="endArrow=none;html=1;rounded=0;entryX=0;entryY=0.5;entryDx=0;entryDy=0;" edge="1" parent="1" target="IDCshQqnjku1q6qR8PRN-9">
          <mxGeometry width="50" height="50" relative="1" as="geometry">
            <mxPoint x="120" y="440" as="sourcePoint" />
            <mxPoint x="180" y="450" as="targetPoint" />
          </mxGeometry>
        </mxCell>
        <mxCell id="4tIVyKQn4jrEs9D6Ye5S-7" value="" style="endArrow=none;html=1;rounded=0;entryX=0;entryY=0.5;entryDx=0;entryDy=0;" edge="1" parent="1" target="IDCshQqnjku1q6qR8PRN-6">
          <mxGeometry width="50" height="50" relative="1" as="geometry">
            <mxPoint x="120" y="440" as="sourcePoint" />
            <mxPoint x="160" y="490" as="targetPoint" />
          </mxGeometry>
        </mxCell>
        <mxCell id="4tIVyKQn4jrEs9D6Ye5S-10" value="" style="endArrow=none;html=1;rounded=0;entryX=0;entryY=0.5;entryDx=0;entryDy=0;" edge="1" parent="1" target="IDCshQqnjku1q6qR8PRN-4">
          <mxGeometry width="50" height="50" relative="1" as="geometry">
            <mxPoint x="120" y="440" as="sourcePoint" />
            <mxPoint x="170" y="560" as="targetPoint" />
          </mxGeometry>
        </mxCell>
      </root>
    </mxGraphModel>
  </diagram>
</mxfile>
